<svg t="1690870923227" class="icon" viewBox="0 0 1024 1024" version="1.1" xmlns="http://www.w3.org/2000/svg" p-id="2272" width="200" height="200"><path d="M1023.975952 194.944947c-37.679158 16.679891-78.102822 27.991518-120.592542 33.05279 43.367717-25.931602 76.668147-67.167772 92.285846-116.151393-40.551578 24.050766-85.536119 41.484833-133.394103 50.980091-38.304398-40.800241-92.849688-66.355267-153.272849-66.355267-116.02348 0-210.06225 94.039793-210.06225 210.004945 0 16.430204 1.874697 32.489972 5.438872 47.857984-174.508499-8.810666-329.278445-92.40762-432.870802-219.500203C53.388443 165.891238 43.074539 202.00269 43.074539 240.428861c0 72.855308 32.520671 137.149637 88.880283 174.821631-34.428114-1.119497-99.69049-10.556427-99.69049-26.303063 0 0.876973 0 1.689479 0 2.622734 0 101.723799 77.008908 186.632631 173.045171 205.942419-17.619286 4.811586-33.908274 7.370875-53.090149 7.370875-13.563924 0-25.546839-1.375324-38.419008-3.812839 26.744107 83.476203 104.847953 144.149051 196.757223 145.895835-71.850421 56.297191-162.17152 89.912799-260.573667 89.912799-17.000186 0-33.537837-1.062192-49.973158-2.936889 92.976578 59.547211 203.388247 94.346785 322.041624 94.346785 386.323673 0 597.605703-320.032874 597.605703-597.570911 0-9.123798-0.167822-18.183128-0.602727-27.179013 41.050951-29.616528 76.606749-66.611094 104.785531-108.723214L1023.975952 194.944947z" fill="#1999FF" p-id="2273"></path></svg>